<svg xmlns="http://www.w3.org/2000/svg" width="36" height="36" viewBox="0 0 36 36" fill="none">
  <path d="M18 4C10.268 4 4 10.268 4 18C4 25.732 10.268 32 18 32C25.732 32 32 25.732 32 18C32 10.268 25.732 4 18 4ZM18 9C20.206 9 22 10.794 22 13C22 15.206 20.206 17 18 17C15.794 17 14 15.206 14 13C14 10.794 15.794 9 18 9ZM18 27.2C14.5 27.2 11.42 25.48 9.8 22.84C9.84 20.42 14.4 19.1 18 19.1C21.58 19.1 26.16 20.42 26.2 22.84C24.58 25.48 21.5 27.2 18 27.2Z" fill="url(#paint0_linear)"/>
  <defs>
    <linearGradient id="paint0_linear" x1="4" y1="4" x2="32" y2="32" gradientUnits="userSpaceOnUse">
      <stop stop-color="#F26A1B"/>
      <stop offset="1" stop-color="#D42B8A"/>
    </linearGradient>
  </defs>
</svg>